<svg width="170" height="170" viewBox="0 0 170 170" fill="none" xmlns="http://www.w3.org/2000/svg">
<circle cx="85" cy="85" r="85" fill="#FFF5E8"/>
<path d="M79.3065 121.664C74.6985 121.664 70.8585 120.768 67.7865 118.976C64.7145 117.184 62.1972 114.752 60.2345 111.68C58.3572 108.523 56.9918 104.811 56.1385 100.544C55.3705 96.2773 54.9865 91.6267 54.9865 86.592C54.9865 75.4987 56.9918 66.8373 61.0025 60.608C65.0985 54.2933 71.2425 51.136 79.4345 51.136C81.9092 51.136 84.1278 51.4347 86.0905 52.032C88.0532 52.6293 89.8878 53.3973 91.5945 54.336L88.7785 63.424C86.1332 61.7173 83.1892 60.864 79.9465 60.864C75.3385 60.864 71.9252 62.9547 69.7065 67.136C67.5732 71.3173 66.5065 77.8027 66.5065 86.592C66.5065 90.2613 66.7198 93.6747 67.1465 96.832C67.5732 99.904 68.2985 102.549 69.3225 104.768C70.4318 106.987 71.8398 108.736 73.5465 110.016C75.3385 111.296 77.5998 111.936 80.3305 111.936C82.2078 111.936 83.8718 111.723 85.3225 111.296C86.8585 110.784 88.3092 110.144 89.6745 109.376L92.1065 117.952C90.7412 118.891 88.9065 119.744 86.6025 120.512C84.3838 121.28 81.9518 121.664 79.3065 121.664ZM113.935 113.984C113.935 115.947 113.21 117.696 111.759 119.232C110.394 120.768 108.559 121.536 106.255 121.536C103.951 121.536 102.117 120.768 100.751 119.232C99.3862 117.696 98.7035 115.947 98.7035 113.984C98.7035 111.936 99.3862 110.144 100.751 108.608C102.117 107.072 103.951 106.304 106.255 106.304C108.559 106.304 110.394 107.072 111.759 108.608C113.21 110.144 113.935 111.936 113.935 113.984ZM113.935 58.816C113.935 60.7787 113.21 62.528 111.759 64.064C110.394 65.6 108.559 66.368 106.255 66.368C103.951 66.368 102.117 65.6 100.751 64.064C99.3862 62.528 98.7035 60.7787 98.7035 58.816C98.7035 56.768 99.3862 54.976 100.751 53.44C102.117 51.904 103.951 51.136 106.255 51.136C108.559 51.136 110.394 51.904 111.759 53.44C113.21 54.976 113.935 56.768 113.935 58.816Z" fill="#332005"/>
</svg>
